<svg xmlns="http://www.w3.org/2000/svg" height="40" viewBox="0 96 960 960" width="40"><path d="M434.334 1040.67V964Q299 949 202.5 852.167 106 755.333 92 621.666H15.334v-91.332H92Q107 395 203.833 298.5 300.667 202 434.334 188v-76.667h91.332V188q133.667 14 230.501 110.5Q853 395 868 530.334h76.667v91.332H868q-14 133.667-110.5 230.501Q661 949 525.666 964v76.67h-91.332Zm45.552-178.669q118.781 0 202.448-83.553 83.667-83.552 83.667-202.333 0-118.782-83.553-202.449-83.552-83.667-202.334-83.667-118.781 0-202.448 83.553-83.667 83.552-83.667 202.333 0 118.782 83.553 202.449 83.552 83.667 202.334 83.667ZM480 729.333q-64 0-108.667-44.666Q326.667 640 326.667 576t44.666-108.667Q416 422.667 480 422.667t108.667 44.666Q633.333 512 633.333 576t-44.666 108.667Q544 729.333 480 729.333ZM479.708 637q25.625 0 43.459-17.541Q541 601.918 541 576.292q0-25.625-17.541-43.459Q505.918 515 480.292 515q-25.625 0-43.459 17.541Q419 550.082 419 575.708q0 25.625 17.541 43.459Q454.082 637 479.708 637Zm.292-61Z"/></svg>